Coordinates
version=1
nRows=37
nColumns=38
inDegrees=no

Units are S.I. units (second, meters, Newtons, ...)
If the header above contains a line with 'inDegrees', this indicates whether rotational values are in degrees (yes) or radians (no).

endheader
time	pelvis_tilt	pelvis_list	pelvis_rotation	pelvis_tx	pelvis_ty	pelvis_tz	hip_flexion_r	hip_adduction_r	hip_rotation_r	knee_angle_r	ankle_angle_r	subtalar_angle_r	mtp_angle_r	hip_flexion_l	hip_adduction_l	hip_rotation_l	knee_angle_l	ankle_angle_l	subtalar_angle_l	mtp_angle_l	lumbar_extension	lumbar_bending	lumbar_rotation	arm_flex_r	arm_add_r	arm_rot_r	elbow_flex_r	pro_sup_r	wrist_flex_r	wrist_dev_r	arm_flex_l	arm_add_l	arm_rot_l	elbow_flex_l	pro_sup_l	wrist_flex_l	wrist_dev_l
0	-0.0770664	1.45225	-1.42562	0.849493	2.01273	0.931871	0.418361	-0.119249	-0.184426	0.614543	0.10953	0	0	-0.277735	0.0502989	-0.00939016	0	0.133837	0	0	-0.274006	-0.078584	-0.227499	-0.0936347	-0.260664	0.208987	0.528013	0.955489	0	0	0.0108959	-0.401648	0.409412	0.65355	1.47553	0	0
0.01	-0.0670092	1.458	-1.43296	0.848915	2.00493	0.930285	0.423527	-0.118287	-0.19808	0.56431	0.117615	0	0	-0.28112	0.0485745	-0.00529467	0	0.142363	0	0	-0.270431	-0.079809	-0.229921	-0.0925709	-0.258735	0.211009	0.527223	0.961072	0	0	0.0206449	-0.405878	0.412001	0.659961	1.46238	0	0
0.02	-0.0912996	1.46588	-1.40702	0.847757	1.99689	0.92811	0.425367	-0.112307	-0.194016	0.50186	0.119002	0	0	-0.269431	0.0466749	-0.028413	0.0131989	0.1592	0	0	-0.264016	-0.0780621	-0.230441	-0.0924997	-0.256791	0.210863	0.527454	0.965554	0	0	0.0286274	-0.410176	0.411977	0.668506	1.44788	0	0
0.03	-0.0366864	1.46862	-1.46462	0.846515	1.98829	0.926821	0.413825	-0.112102	-0.157335	0.431323	0.121893	0	0	-0.293399	0.0497417	-0.0060761	0	0.157162	0	0	-0.263484	-0.0846775	-0.227955	-0.0918171	-0.254316	0.208081	0.525444	0.967466	0	0	0.0360683	-0.41402	0.41176	0.674773	1.43516	0	0
0.04	-0.029382	1.47131	-1.48201	0.844872	1.9803	0.925157	0.412577	-0.103504	-0.145599	0.376103	0.120103	0	0	-0.302805	0.0521823	-0.0173151	0	0.16541	0	0	-0.263314	-0.08618	-0.21743	-0.0898541	-0.254736	0.204453	0.526189	0.973567	0	0	0.0453481	-0.416619	0.414932	0.683039	1.40464	0	0
0.05	-0.0200899	1.47579	-1.48464	0.843259	1.97102	0.923518	0.413814	-0.0989584	-0.183008	0.334784	0.126652	0	0	-0.309252	0.0478582	-0.0140852	0	0.175107	0	0	-0.258872	-0.0883601	-0.221635	-0.0902358	-0.24357	0.176353	0.514984	1.02205	0	0	0.051889	-0.433554	0.458792	0.702836	1.25197	0	0
0.06	-0.0308076	1.48309	-1.47351	0.841986	1.96241	0.921218	0.412351	-0.0908231	-0.173978	0.282906	0.127782	0	0	-0.301068	0.0475207	-0.0346548	0.00167873	0.188215	0	0	-0.25237	-0.0871464	-0.222056	-0.0895107	-0.244084	0.184425	0.515595	1.01745	0	0	0.0557365	-0.433067	0.441662	0.70721	1.27682	0	0
0.07	0.0557346	1.48458	-1.56315	0.84067	1.95314	0.919735	0.398541	-0.0964229	-0.144921	0.226631	0.128843	0	0	-0.323159	0.0523046	-0.0199312	0	0.189625	0	0	-0.251141	-0.0947996	-0.220845	-0.0885762	-0.243437	0.188898	0.514114	1.01304	0	0	0.0580704	-0.433596	0.426846	0.712285	1.29199	0	0
0.08	0.0117464	1.48826	-1.52096	0.83876	1.94439	0.917837	0.401059	-0.081257	-0.16543	0.19814	0.128027	0	0	-0.318535	0.0482911	-0.0446913	0.00162403	0.20317	0	0	-0.248086	-0.0908286	-0.218169	-0.0869115	-0.243015	0.191901	0.513622	1.00926	0	0	0.0619006	-0.43463	0.41506	0.718977	1.29858	0	0
0.09	0.0780385	1.4924	-1.5871	0.837905	1.93492	0.915839	0.390093	-0.0874704	-0.138015	0.15312	0.121314	0	0	-0.323768	0.052314	-0.0480001	0.00618384	0.212506	0	0	-0.243351	-0.0946871	-0.21861	-0.0875142	-0.24367	0.19357	0.513816	1.00622	0	0	0.0641497	-0.43354	0.402841	0.723787	1.30041	0	0
0.1	0.134938	1.48933	-1.64752	0.836417	1.92518	0.914832	0.379358	-0.0868165	-0.134573	0.128041	0.116485	0	0	-0.350436	0.0539107	-0.0313255	0	0.211626	0	0	-0.245445	-0.0988469	-0.215388	-0.0866425	-0.243824	0.195045	0.512458	1.00346	0	0	0.0671738	-0.433054	0.392877	0.729383	1.29711	0	0
0.11	0.127913	1.49204	-1.64002	0.835064	1.91568	0.912829	0.376858	-0.0824396	-0.1382	0.115484	0.114305	0	0	-0.344787	0.052437	-0.0554732	0.0123458	0.225793	0	0	-0.242329	-0.0960487	-0.215307	-0.0863451	-0.245615	0.198944	0.513966	1.00177	0	0	0.0690003	-0.43374	0.386233	0.736772	1.29029	0	0
0.12	0.172285	1.48659	-1.68618	0.833759	1.90558	0.912063	0.366927	-0.0830437	-0.142816	0.112411	0.115516	0	0	-0.372852	0.0529613	-0.0356411	0	0.223163	0	0	-0.247017	-0.0982167	-0.214731	-0.0852091	-0.248393	0.208462	0.515356	0.995713	0	0	0.0698967	-0.435147	0.383263	0.744069	1.27008	0	0
0.13	0.187644	1.4854	-1.70012	0.832715	1.89544	0.910815	0.362696	-0.0827463	-0.152073	0.119811	0.116219	0	0	-0.380963	0.0513687	-0.0387477	0.00807088	0.230692	0	0	-0.247085	-0.0969591	-0.215282	-0.0855492	-0.250319	0.20967	0.516128	0.993226	0	0	0.0722772	-0.434268	0.379618	0.747774	1.2632	0	0
0.14	0.200193	1.48382	-1.70937	0.831867	1.88519	0.909724	0.35931	-0.0840205	-0.165502	0.13632	0.114015	0	0	-0.383222	0.0482433	-0.0519027	0.031776	0.246352	0	0	-0.247749	-0.0948463	-0.217639	-0.0864187	-0.252922	0.21355	0.518547	0.989765	0	0	0.0742563	-0.434936	0.383258	0.754001	1.22336	0	0
0.15	0.216395	1.48183	-1.72279	0.83101	1.8746	0.90874	0.353539	-0.0853304	-0.174319	0.152338	0.108218	0	0	-0.389621	0.0459078	-0.0566463	0.0475635	0.253413	0	0	-0.248202	-0.0928261	-0.219857	-0.087938	-0.255672	0.217451	0.521312	0.989239	0	0	0.07503	-0.433472	0.379536	0.75737	1.22358	0	0
0.16	0.281854	1.48152	-1.78325	0.830279	1.86359	0.907298	0.34088	-0.0927956	-0.156382	0.141167	0.083912	0	0	-0.390823	0.0464835	-0.0617786	0.0693351	0.262824	0	0	-0.244983	-0.0948304	-0.225337	-0.0913261	-0.25823	0.22251	0.525571	0.989561	0	0	0.0729124	-0.433505	0.376367	0.762348	1.22277	0	0
0.17	0.214393	1.47809	-1.71149	0.828879	1.85303	0.907224	0.345765	-0.0818424	-0.221596	0.193787	0.103987	0	0	-0.39212	0.0333189	-0.0815929	0.101551	0.277389	0	0	-0.24916	-0.0850674	-0.228398	-0.090728	-0.26067	0.230409	0.527027	0.989812	0	0	0.0733137	-0.43238	0.372926	0.763303	1.22344	0	0
0.18	0.255217	1.47783	-1.74597	0.828454	1.8419	0.906397	0.333293	-0.0908392	-0.210103	0.191946	0.0911415	0	0	-0.391153	0.0308804	-0.0873268	0.127699	0.282964	0	0	-0.246376	-0.0835431	-0.234457	-0.0927019	-0.263422	0.231243	0.528744	0.987377	0	0	0.0715128	-0.430262	0.370641	0.76249	1.22675	0	0
0.19	0.227185	1.47752	-1.71563	0.82667	1.83093	0.906136	0.329989	-0.0819237	-0.234616	0.199455	0.0668178	0	0	-0.387982	0.0204585	-0.104441	0.160559	0.289967	0	0	-0.245298	-0.0772775	-0.235757	-0.0925359	-0.264289	0.232028	0.527833	0.983984	0	0	0.0698063	-0.429041	0.367214	0.762118	1.23279	0	0
0.2	0.217455	1.47873	-1.70411	0.824994	1.82001	0.905883	0.324014	-0.0790986	-0.239403	0.200052	0.0379631	0	0	-0.379392	0.0109985	-0.122233	0.199982	0.29603	0	0	-0.242562	-0.0719543	-0.237173	-0.0919398	-0.265625	0.234298	0.526711	0.981228	0	0	0.0673585	-0.427199	0.36299	0.762202	1.2411	0	0
0.21	0.218467	1.48044	-1.70286	0.823645	1.80907	0.905816	0.312786	-0.081943	-0.223733	0.194718	0.0148418	0	0	-0.367151	0.00184076	-0.138274	0.244825	0.298429	0	0	-0.239327	-0.0666034	-0.239462	-0.0914281	-0.267957	0.238211	0.526777	0.9801	0	0	0.0642131	-0.424025	0.357001	0.762305	1.25111	0	0
0.22	0.140058	1.48139	-1.62509	0.821179	1.79815	0.906396	0.313476	-0.0684406	-0.249382	0.214745	0.00664521	0	0	-0.353509	-0.0170937	-0.163032	0.296429	0.296312	0	0	-0.237758	-0.0556191	-0.237297	-0.0905851	-0.268947	0.241899	0.526217	0.980488	0	0	0.0612346	-0.421122	0.350173	0.761005	1.26345	0	0
0.23	0.079381	1.48156	-1.56398	0.819262	1.78709	0.90726	0.311414	-0.0632325	-0.256772	0.235622	0.0078098	0	0	-0.338158	-0.0348813	-0.183354	0.35123	0.286264	0	0	-0.236048	-0.045441	-0.23639	-0.0904221	-0.270603	0.243345	0.526315	0.980178	0	0	0.0572372	-0.417301	0.34371	0.758837	1.27796	0	0
0.24	0.0151261	1.48247	-1.50061	0.817164	1.77609	0.908392	0.31166	-0.0573898	-0.260659	0.259914	0.0145346	0	0	-0.319412	-0.0538468	-0.193406	0.408442	0.27729	0	0	-0.233471	-0.0351695	-0.234797	-0.0896378	-0.271136	0.241705	0.525672	0.989102	0	0	0.0514446	-0.411542	0.327669	0.755149	1.32651	0	0
0.25	-0.0272369	1.47954	-1.46131	0.814899	1.76515	0.910248	0.305772	-0.0513845	-0.258219	0.279213	0.0213155	0	0	-0.30574	-0.0687516	-0.194556	0.457345	0.251229	0	0	-0.235291	-0.0270401	-0.231087	-0.0887673	-0.272407	0.247276	0.527228	0.989004	0	0	0.046124	-0.408983	0.323058	0.755646	1.33619	0	0
0.26	-0.0713202	1.47976	-1.4209	0.812446	1.75445	0.911859	0.302497	-0.0444833	-0.256584	0.295345	0.0283118	0	0	-0.279702	-0.0857155	-0.207356	0.52166	0.21529	0	0	-0.233812	-0.0193833	-0.226895	-0.0878313	-0.273294	0.251376	0.529551	0.987524	0	0	0.0395951	-0.406815	0.317379	0.757874	1.34707	0	0
0.27	-0.116199	1.48306	-1.382	0.809696	1.74397	0.913148	0.299986	-0.036004	-0.252619	0.304183	0.0323779	0	0	-0.246249	-0.102792	-0.220354	0.590832	0.168832	0	0	-0.228942	-0.0128465	-0.220675	-0.0869521	-0.274086	0.255243	0.532247	0.982926	0	0	0.0319588	-0.405368	0.311981	0.761705	1.35955	0	0
0.28	-0.173011	1.48895	-1.33141	0.806867	1.73372	0.914071	0.296713	-0.0258053	-0.247863	0.304284	0.0331351	0	0	-0.206255	-0.12072	-0.22981	0.663146	0.112878	0	0	-0.221009	-0.00633068	-0.214267	-0.0862175	-0.275388	0.262858	0.534418	0.975586	0	0	0.0232546	-0.405083	0.308025	0.767919	1.37133	0	0
0.29	-0.227892	1.49468	-1.28274	0.804122	1.72363	0.91487	0.290404	-0.0157536	-0.242999	0.298211	0.0326691	0	0	-0.166128	-0.136752	-0.233589	0.732605	0.0555533	0	0	-0.212948	-0.00047653	-0.208722	-0.0850651	-0.281765	0.296575	0.540308	0.924575	0	0	0.0135184	-0.405823	0.30515	0.776377	1.37893	0	0
0.3	-0.276433	1.5003	-1.24142	0.801324	1.71369	0.915567	0.283556	-0.00673839	-0.237167	0.291243	0.0333014	0	0	-0.126602	-0.150892	-0.2361	0.798774	-0.00151455	0	0	-0.205295	0.00405082	-0.201178	-0.0846006	-0.283348	0.306153	0.541221	0.918342	0	0	0.00506936	-0.408397	0.309347	0.785562	1.36917	0	0
0.31	-0.310013	1.50167	-1.21724	0.798007	1.70357	0.916719	0.271015	0.00356109	-0.228165	0.282536	0.0346745	0	0	-0.0934082	-0.162594	-0.236299	0.859284	-0.0575518	0	0	-0.202248	0.00748479	-0.190742	-0.0848684	-0.280112	0.294861	0.538296	0.943844	0	0	-0.00257786	-0.410264	0.308758	0.792073	1.37869	0	0
0.32	-0.352141	1.50773	-1.18159	0.795785	1.694	0.91718	0.266072	0.00939085	-0.22153	0.279286	0.0395752	0	0	-0.0513932	-0.174078	-0.236095	0.922857	-0.112898	0	0	-0.194901	0.0113228	-0.183649	-0.0862786	-0.282782	0.296977	0.543484	0.934414	0	0	-0.00929966	-0.411391	0.312571	0.79844	1.3743	0	0
0.33	-0.364564	1.50935	-1.1769	0.793188	1.68437	0.918284	0.256054	0.0157656	-0.211768	0.276974	0.0452884	0	0	-0.016855	-0.183772	-0.238361	0.979762	-0.162085	0	0	-0.192956	0.0136741	-0.174913	-0.0886357	-0.284653	0.297241	0.550769	0.924224	0	0	-0.0146736	-0.415475	0.32465	0.805864	1.34306	0	0
0.34	-0.325246	1.50555	-1.22468	0.790716	1.67476	0.920138	0.239306	0.0205995	-0.200738	0.275342	0.0506884	0	0	0.00890744	-0.192842	-0.255502	1.03063	-0.197388	0	0	-0.198343	0.0146315	-0.165924	-0.0897985	-0.286396	0.296443	0.55716	0.924916	0	0	-0.0191496	-0.416073	0.325131	0.808941	1.34562	0	0
0.35	-0.274989	1.50135	-1.28325	0.78826	1.66534	0.922125	0.221599	0.0240503	-0.188667	0.273286	0.0559527	0	0	0.0286775	-0.198014	-0.26008	1.06781	-0.21029	0	0	-0.204943	0.0140559	-0.157611	-0.0911856	-0.288062	0.293041	0.565755	0.927374	0	0	-0.0233843	-0.417468	0.32684	0.812135	1.34668	0	0
0.36	-0.219401	1.49707	-1.34745	0.785777	1.6561	0.924144	0.20272	0.0264574	-0.177038	0.268591	0.0609996	0	0	0.0470031	-0.201759	-0.265548	1.10096	-0.206635	0	0	-0.212099	0.0120279	-0.149473	-0.0926985	-0.289146	0.285649	0.575379	0.934502	0	0	-0.0273029	-0.419393	0.329694	0.815052	1.34603	0	0
